HIERARCHY
ROOT Hips
{
  OFFSET -190.123 93.1294 404.684
  CHANNELS 6 Xposition Yposition Zposition Zrotation Xrotation Yrotation
  JOINT Spine
  {
    OFFSET 0 8 0
    CHANNELS 6 Xposition Yposition Zposition Zrotation Xrotation Yrotation
    JOINT Spine1
    {
      OFFSET 0 8 0
      CHANNELS 6 Xposition Yposition Zposition Zrotation Xrotation Yrotation
      JOINT Spine2
      {
        OFFSET 0 8 0
        CHANNELS 6 Xposition Yposition Zposition Zrotation Xrotation Yrotation
        JOINT Spine3
        {
          OFFSET 0 8 0
          CHANNELS 6 Xposition Yposition Zposition Zrotation Xrotation Yrotation
          JOINT Neck
          {
            OFFSET 0 17 0
            CHANNELS 6 Xposition Yposition Zposition Zrotation Xrotation Yrotation
            JOINT Head
            {
              OFFSET 0 10.8 0
              CHANNELS 6 Xposition Yposition Zposition Zrotation Xrotation Yrotation
              End Site
              {
                OFFSET 0 20.25 0
              }
            }
          }
          JOINT LeftShoulder
          {
            OFFSET 5 17 0
            CHANNELS 6 Xposition Yposition Zposition Zrotation Xrotation Yrotation
            JOINT LeftShoulder2
            {
              OFFSET 6.45 0 0
              CHANNELS 6 Xposition Yposition Zposition Zrotation Xrotation Yrotation
              JOINT LeftArm
              {
                OFFSET 6.45 0 0
                CHANNELS 6 Xposition Yposition Zposition Zrotation Xrotation Yrotation
                JOINT LeftForeArm
                {
                  OFFSET 0 -32.4 -2
                  CHANNELS 6 Xposition Yposition Zposition Zrotation Xrotation Yrotation
                  JOINT LeftHand
                  {
                    OFFSET 0 -25.65 2
                    CHANNELS 6 Xposition Yposition Zposition Zrotation Xrotation Yrotation
                    JOINT LeftHandThumb1
                    {
                      OFFSET -0.5 -1.5 2.65
                      CHANNELS 6 Xposition Yposition Zposition Zrotation Xrotation Yrotation
                      JOINT LeftHandThumb2
                      {
                        OFFSET 0 -3.8 3.7
                        CHANNELS 6 Xposition Yposition Zposition Zrotation Xrotation Yrotation
                        JOINT LeftHandThumb3
                        {
                          OFFSET 0 -3 2.7
                          CHANNELS 6 Xposition Yposition Zposition Zrotation Xrotation Yrotation
                          End Site
                          {
                            OFFSET 0 -2.3 1.8
                          }
                        }
                      }
                    }
                    JOINT LeftHandIndex
                    {
                      OFFSET 0 -1.9 1.6
                      CHANNELS 6 Xposition Yposition Zposition Zrotation Xrotation Yrotation
                      JOINT LeftHandIndex1
                      {
                        OFFSET 0 -8.3 1.9
                        CHANNELS 6 Xposition Yposition Zposition Zrotation Xrotation Yrotation
                        JOINT LeftHandIndex2
                        {
                          OFFSET 0 -4.5 0
                          CHANNELS 6 Xposition Yposition Zposition Zrotation Xrotation Yrotation
                          JOINT LeftHandIndex3
                          {
                            OFFSET 0 -3.4 0
                            CHANNELS 6 Xposition Yposition Zposition Zrotation Xrotation Yrotation
                            End Site
                            {
                              OFFSET 0 -2.6 0
                            }
                          }
                        }
                      }
                    }
                    JOINT LeftHandMiddle
                    {
                      OFFSET -0.25 -2.2 0.4
                      CHANNELS 6 Xposition Yposition Zposition Zrotation Xrotation Yrotation
                      JOINT LeftHandMiddle1
                      {
                        OFFSET 0 -8.3 1
                        CHANNELS 6 Xposition Yposition Zposition Zrotation Xrotation Yrotation
                        JOINT LeftHandMiddle2
                        {
                          OFFSET 0 -4.65 0
                          CHANNELS 6 Xposition Yposition Zposition Zrotation Xrotation Yrotation
                          JOINT LeftHandMiddle3
                          {
                            OFFSET 0 -3.3 0
                            CHANNELS 6 Xposition Yposition Zposition Zrotation Xrotation Yrotation
                            End Site
                            {
                              OFFSET 0 -2.7 0
                            }
                          }
                        }
                      }
                    }
                    JOINT LeftHandRing
                    {
                      OFFSET -0.5 -2.15 -0.8
                      CHANNELS 6 Xposition Yposition Zposition Zrotation Xrotation Yrotation
                      JOINT LeftHandRing1
                      {
                        OFFSET 0 -7.75 -0.2
                        CHANNELS 6 Xposition Yposition Zposition Zrotation Xrotation Yrotation
                        JOINT LeftHandRing2
                        {
                          OFFSET 0 -3.8 0
                          CHANNELS 6 Xposition Yposition Zposition Zrotation Xrotation Yrotation
                          JOINT LeftHandRing3
                          {
                            OFFSET 0 -3.4 0
                            CHANNELS 6 Xposition Yposition Zposition Zrotation Xrotation Yrotation
                            End Site
                            {
                              OFFSET 0 -2.6 0
                            }
                          }
                        }
                      }
                    }
                    JOINT LeftHandPinky
                    {
                      OFFSET -0.75 -1.75 -1.85
                      CHANNELS 6 Xposition Yposition Zposition Zrotation Xrotation Yrotation
                      JOINT LeftHandPinky1
                      {
                        OFFSET 0 -7.15 -1
                        CHANNELS 6 Xposition Yposition Zposition Zrotation Xrotation Yrotation
                        JOINT LeftHandPinky2
                        {
                          OFFSET 0 -3 0
                          CHANNELS 6 Xposition Yposition Zposition Zrotation Xrotation Yrotation
                          JOINT LeftHandPinky3
                          {
                            OFFSET 0 -2.35 0
                            CHANNELS 6 Xposition Yposition Zposition Zrotation Xrotation Yrotation
                            End Site
                            {
                              OFFSET 0 -2.1 0
                            }
                          }
                        }
                      }
                    }
                  }
                }
              }
            }
          }
          JOINT RightShoulder
          {
            OFFSET -5 17 0
            CHANNELS 6 Xposition Yposition Zposition Zrotation Xrotation Yrotation
            JOINT RightShoulder2
            {
              OFFSET -6.45 0 0
              CHANNELS 6 Xposition Yposition Zposition Zrotation Xrotation Yrotation
              JOINT RightArm
              {
                OFFSET -6.45 0 0
                CHANNELS 6 Xposition Yposition Zposition Zrotation Xrotation Yrotation
                JOINT RightForeArm
                {
                  OFFSET 0 -32.4 -2
                  CHANNELS 6 Xposition Yposition Zposition Zrotation Xrotation Yrotation
                  JOINT RightHand
                  {
                    OFFSET 0 -25.65 2
                    CHANNELS 6 Xposition Yposition Zposition Zrotation Xrotation Yrotation
                    JOINT RightHandThumb1
                    {
                      OFFSET 0.5 -1.5 2.65
                      CHANNELS 6 Xposition Yposition Zposition Zrotation Xrotation Yrotation
                      JOINT RightHandThumb2
                      {
                        OFFSET 0 -3.8 3.7
                        CHANNELS 6 Xposition Yposition Zposition Zrotation Xrotation Yrotation
                        JOINT RightHandThumb3
                        {
                          OFFSET 0 -3 2.7
                          CHANNELS 6 Xposition Yposition Zposition Zrotation Xrotation Yrotation
                          End Site
                          {
                            OFFSET 0 -2.3 1.8
                          }
                        }
                      }
                    }
                    JOINT RightHandIndex
                    {
                      OFFSET 0 -1.9 1.6
                      CHANNELS 6 Xposition Yposition Zposition Zrotation Xrotation Yrotation
                      JOINT RightHandIndex1
                      {
                        OFFSET 0 -8.3 1.9
                        CHANNELS 6 Xposition Yposition Zposition Zrotation Xrotation Yrotation
                        JOINT RightHandIndex2
                        {
                          OFFSET 0 -4.5 0
                          CHANNELS 6 Xposition Yposition Zposition Zrotation Xrotation Yrotation
                          JOINT RightHandIndex3
                          {
                            OFFSET 0 -3.4 0
                            CHANNELS 6 Xposition Yposition Zposition Zrotation Xrotation Yrotation
                            End Site
                            {
                              OFFSET 0 -2.6 0
                            }
                          }
                        }
                      }
                    }
                    JOINT RightHandMiddle
                    {
                      OFFSET 0.25 -2.2 0.4
                      CHANNELS 6 Xposition Yposition Zposition Zrotation Xrotation Yrotation
                      JOINT RightHandMiddle1
                      {
                        OFFSET 0 -8.3 1
                        CHANNELS 6 Xposition Yposition Zposition Zrotation Xrotation Yrotation
                        JOINT RightHandMiddle2
                        {
                          OFFSET 0 -4.65 0
                          CHANNELS 6 Xposition Yposition Zposition Zrotation Xrotation Yrotation
                          JOINT RightHandMiddle3
                          {
                            OFFSET 0 -3.3 0
                            CHANNELS 6 Xposition Yposition Zposition Zrotation Xrotation Yrotation
                            End Site
                            {
                              OFFSET 0 -2.7 0
                            }
                          }
                        }
                      }
                    }
                    JOINT RightHandRing
                    {
                      OFFSET 0.5 -2.15 -0.8
                      CHANNELS 6 Xposition Yposition Zposition Zrotation Xrotation Yrotation
                      JOINT RightHandRing1
                      {
                        OFFSET 0 -7.75 -0.2
                        CHANNELS 6 Xposition Yposition Zposition Zrotation Xrotation Yrotation
                        JOINT RightHandRing2
                        {
                          OFFSET 0 -3.8 0
                          CHANNELS 6 Xposition Yposition Zposition Zrotation Xrotation Yrotation
                          JOINT RightHandRing3
                          {
                            OFFSET 0 -3.4 0
                            CHANNELS 6 Xposition Yposition Zposition Zrotation Xrotation Yrotation
                            End Site
                            {
                              OFFSET 0 -2.6 0
                            }
                          }
                        }
                      }
                    }
                    JOINT RightHandPinky
                    {
                      OFFSET 0.75 -1.75 -1.85
                      CHANNELS 6 Xposition Yposition Zposition Zrotation Xrotation Yrotation
                      JOINT RightHandPinky1
                      {
                        OFFSET 0 -7.15 -1
                        CHANNELS 6 Xposition Yposition Zposition Zrotation Xrotation Yrotation
                        JOINT RightHandPinky2
                        {
                          OFFSET 0 -3 0
                          CHANNELS 6 Xposition Yposition Zposition Zrotation Xrotation Yrotation
                          JOINT RightHandPinky3
                          {
                            OFFSET 0 -2.35 0
                            CHANNELS 6 Xposition Yposition Zposition Zrotation Xrotation Yrotation
                            End Site
                            {
                              OFFSET 0 -2.1 0
                            }
                          }
                        }
                      }
                    }
                  }
                }
              }
            }
          }
        }
      }
    }
  }
  JOINT LeftUpLeg
  {
    OFFSET 8 0 0
    CHANNELS 6 Xposition Yposition Zposition Zrotation Xrotation Yrotation
    JOINT LeftLeg
    {
      OFFSET 0 -45 -1
      CHANNELS 6 Xposition Yposition Zposition Zrotation Xrotation Yrotation
      JOINT LeftFoot
      {
        OFFSET 0 -41 -2
        CHANNELS 6 Xposition Yposition Zposition Zrotation Xrotation Yrotation
        JOINT LeftToeBase
        {
          OFFSET 0 -7.5 12.5
          CHANNELS 6 Xposition Yposition Zposition Zrotation Xrotation Yrotation
          JOINT LeftFootToe
          {
            OFFSET 0 0 4
            CHANNELS 6 Xposition Yposition Zposition Zrotation Xrotation Yrotation
            End Site
            {
              OFFSET 0 0 0
            }
          }
        }
      }
    }
  }
  JOINT RightUpLeg
  {
    OFFSET -8 0 0
    CHANNELS 6 Xposition Yposition Zposition Zrotation Xrotation Yrotation
    JOINT RightLeg
    {
      OFFSET 0 -45 -1
      CHANNELS 6 Xposition Yposition Zposition Zrotation Xrotation Yrotation
      JOINT RightFoot
      {
        OFFSET 0 -41 -2
        CHANNELS 6 Xposition Yposition Zposition Zrotation Xrotation Yrotation
        JOINT RightToeBase
        {
          OFFSET 0 -7.5 12.5
          CHANNELS 6 Xposition Yposition Zposition Zrotation Xrotation Yrotation
          JOINT RightFootToe
          {
            OFFSET 0 0 4
            CHANNELS 6 Xposition Yposition Zposition Zrotation Xrotation Yrotation
            End Site
            {
              OFFSET 0 0 0
            }
          }
        }
      }
    }
  }
}
MOTION
Frames:	3
Frame Time:	0.0111111
-211.649 93.1218 407.057 0.861954 1.54439 53.711 0 8 0 -2.34281 10.2952 2.10506 5.68434e-14 8 0 -1.24793 3.16554 18.5168 0 8 0 -0.488607 1.64404 9.30865 0 8 -2.84217e-14 -0.483034 1.62253 9.18352 0 17 -5.68434e-14 -2.87391 -0.744411 4.64454 5.68434e-14 10.8 -5.68434e-14 -6.94277 -2.89886 10.7194 5 17 0 -13.3172 7.65737 -43.4012 6.45 1.42109e-14 2.84217e-14 1.95615 2.14539 -1.66496 6.45 0 5.68434e-14 20.873 -12.4183 35.7786 -5.68434e-14 -32.4 -2 -31.7593 -40.7391 -7.05941 0 -25.65 2 11.1295 -12.1869 2.46518 -0.5 -1.5 2.65 3.88901 -18.6114 -5.4621 5.68434e-14 -3.8 3.7 0.0664074 21.1979 0.0667225 0 -3 2.7 -0.111833 15.26 -0.17029 -5.68434e-14 -1.9 1.6 -4.06267e-05 4.33781e-06 1.09511e-06 0 -8.3 1.9 -4.47197 -17.0235 -0.479044 0 -4.5 1.42109e-14 -0.00826533 -0.0787201 -0.000263696 5.68434e-14 -3.4 1.42109e-14 7.60154e-06 0.040072 -0.000214891 -0.25 -2.2 0.4 -4.06267e-05 4.33781e-06 1.09511e-06 -5.68434e-14 -8.3 1 -15.337 -2.3542 0.708919 0 -4.65 0 -14.8433 -0.0270684 0.00841877 0 -3.3 0 -12.3889 -0.0197262 0.000513457 -0.5 -2.15 -0.8 -4.06267e-05 4.33781e-06 1.09511e-06 -5.68434e-14 -7.75 -0.2 -39.6973 7.85427 5.56682 0 -3.8 0 -12.9846 0.0557194 0.0189824 0 -3.4 0 -11.0007 0.0368758 0.0239678 -0.75 -1.75 -1.85 -4.06267e-05 4.33781e-06 1.09511e-06 0 -7.15 -1 -60.4617 9.20602 10.0327 5.68434e-14 -3 0 -0.000939972 -0.120787 -0.171055 0 -2.35 0 -0.000344418 -0.116895 -0.168929 -5 17 0 -2.69823 1.95831 -46.7665 -6.45 -1.42109e-14 2.84217e-14 -2.24388 -0.245867 0.84179 -6.45 1.42109e-14 0 -25.232 9.63259 -48.7431 0 -32.4 -2 63.6256 -59.598 80.7921 -5.68434e-14 -25.65 2 33.0002 -11.6512 -20.1419 0.5 -1.5 2.65 7.5791 -14.7385 6.47546 1.13687e-13 -3.8 3.7 0.189173 13.1456 -0.0394544 0 -3 2.7 0.0116042 -0.729603 -0.0208126 0 -1.9 1.6 -1.82587e-06 5.12093e-05 -3.91022e-05 -1.13687e-13 -8.3 1.9 1.46635 -8.45014 0.165755 0 -4.5 0 66.0245 0.000274488 -0.0147555 -2.84217e-14 -3.4 1.06581e-14 47.634 -0.0169995 -0.00432917 0.25 -2.2 0.4 -1.82587e-06 5.12093e-05 -3.91022e-05 0 -8.3 1 7.27302 -6.81835 0.275528 0 -4.65 3.55271e-15 86.5612 -0.00162187 0.000145113 -2.84217e-14 -3.3 -3.55271e-15 79.7228 -0.0361788 0.0285534 0.5 -2.15 -0.8 -1.82587e-06 5.12093e-05 -3.91022e-05 0 -7.75 -0.2 18.5477 -3.52134 -0.00780013 0 -3.8 -2.84217e-14 79.6931 0.00292708 -0.00688955 -2.84217e-14 -3.4 1.42109e-14 65.4169 -0.0136124 0.00308856 0.75 -1.75 -1.85 -1.82587e-06 5.12093e-05 -3.91022e-05 0 -7.15 -1 25.2675 -2.34313 -0.316522 5.68434e-14 -3 1.42109e-14 84.9554 0.010347 0.0153324 4.26326e-14 -2.35 7.10543e-15 75.8882 0.0510364 -0.0147932 8 1.42109e-14 2.84217e-14 2.55351 4.89721 89.6733 0 -45 -1 -2.85033 -0.146866 -57.7611 5.68434e-14 -41 -2 -6.1927 0.378695 -47.0458 0 -7.5 12.5 -2.47251e-06 0.00410364 -2.80881e-05 0 0 4 -0.603598 -3.58886 45.0706 -8 0 0 -6.92823 -9.08946 -6.62339 0 -45 -1 0.00223945 7.68657 0.371452 0 -41 -2 4.13785 1.58768 20.1185 0 -7.5 12.5 3.30572e-05 0.0359004 -0.000923339 -5.68434e-14 0 4 -1.46016 -1.16528 21.5826 
-211.773 93.1355 407.327 0.849421 1.51421 54.0137 5.68434e-14 8 2.84217e-14 -2.25199 10.1677 2.09339 0 8 0 -1.23923 3.15101 18.5361 0 8 0 -0.486685 1.63644 9.31868 0 8 0 -0.480611 1.615 9.1932 5.68434e-14 17 0 -2.77153 -0.665848 4.57418 0 10.8 0 -6.82291 -2.95534 10.5425 5 17 0 -13.2651 7.68579 -43.4207 6.45 -1.42109e-14 0 1.93854 2.13213 -1.66995 6.45 2.13163e-14 -2.84217e-14 21.0272 -12.1681 35.5502 -5.68434e-14 -32.4 -2 -32.3382 -40.2483 -6.88191 0 -25.65 2 10.1381 -11.41 3.10669 -0.5 -1.5 2.65 3.67582 -18.7744 -5.00511 0 -3.8 3.7 0.0633223 19.8493 0.066558 0 -3 2.7 -0.107852 17.5937 -0.170298 0 -1.9 1.6 -4.06267e-05 4.33781e-06 1.09511e-06 -5.68434e-14 -8.3 1.9 -4.63944 -17.2983 -0.510556 0 -4.5 1.42109e-14 -0.00826548 -0.0803339 -0.000283163 0 -3.4 -1.42109e-14 7.50615e-06 0.0406991 -0.000233945 -0.25 -2.2 0.4 -4.06267e-05 4.33781e-06 1.09511e-06 5.68434e-14 -8.3 1 -15.4634 -2.47948 0.690755 0 -4.65 0 -15.1968 -0.0268101 0.00931696 5.68434e-14 -3.3 -2.84217e-14 -12.6377 -0.0194277 0.000679702 -0.5 -2.15 -0.8 -4.06267e-05 4.33781e-06 1.09511e-06 0 -7.75 -0.2 -39.9337 7.2334 5.34994 0 -3.8 2.84217e-14 -12.014 0.0598283 0.0188965 0 -3.4 2.84217e-14 -10.2774 0.041036 0.0246755 -0.75 -1.75 -1.85 -4.06267e-05 4.33781e-06 1.09511e-06 0 -7.15 -1 -60.5389 8.70069 9.74541 5.68434e-14 -3 0 -0.000947256 -0.122015 -0.172147 5.68434e-14 -2.35 0 -0.00035023 -0.11812 -0.170003 -5 17 0 -2.71684 1.96255 -47.0905 -6.45 -1.42109e-14 -2.84217e-14 -2.2358 -0.235091 0.860749 -6.45 -1.42109e-14 0 -25.9948 9.99433 -48.1183 5.68434e-14 -32.4 -2 66.8009 -59.398 83.2588 -1.13687e-13 -25.65 2 34.2474 -10.9977 -20.1484 0.5 -1.5 2.65 7.68708 -14.4496 6.59454 0 -3.8 3.7 0.186961 13.5484 -0.0375132 0 -3 2.7 0.0120473 -0.72692 -0.0204855 0 -1.9 1.6 -1.82587e-06 5.12093e-05 -3.91022e-05 0 -8.3 1.9 1.04076 -7.46245 0.134536 0 -4.5 3.55271e-15 66.3833 0.000789475 -0.0102214 -2.84217e-14 -3.4 -3.55271e-15 47.9892 -0.0117695 -0.00228217 0.25 -2.2 0.4 -1.82587e-06 5.12093e-05 -3.91022e-05 0 -8.3 1 7.23665 -5.98388 0.213558 0 -4.65 -7.10543e-15 86.9276 -0.00179468 0.000362046 -2.84217e-14 -3.3 1.06581e-14 80.6377 -0.0292108 0.0230907 0.5 -2.15 -0.8 -1.82587e-06 5.12093e-05 -3.91022e-05 0 -7.75 -0.2 19.1949 -3.02243 -0.109861 0 -3.8 2.84217e-14 79.8631 0.0032103 -0.000140691 -8.52651e-14 -3.4 1.42109e-14 65.6926 -0.000541394 0.00242454 0.75 -1.75 -1.85 -1.82587e-06 5.12093e-05 -3.91022e-05 0 -7.15 -1 26.2064 -1.98644 -0.435377 1.13687e-13 -3 0 84.3043 0.0109917 0.0157464 2.84217e-14 -2.35 -1.42109e-14 74.4436 0.0540905 -0.0152185 8 2.84217e-14 2.84217e-14 2.81493 4.90528 89.6206 5.68434e-14 -45 -1 -2.84871 -0.12373 -57.7393 0 -41 -2 -6.36367 0.49558 -47.2642 0 -7.5 12.5 -2.47259e-06 0.00393469 -2.80881e-05 0 -1.77636e-15 4 -0.498828 -3.4967 45.0693 -8 0 0 -6.8935 -8.91214 -6.4577 0 -45 -1 0.000121222 7.21652 0.342181 0 -41 -2 4.18338 1.88982 20.4604 5.68434e-14 -7.5 12.5 3.30484e-05 0.0353541 -0.000923339 0 0 4 -1.45468 -1.17521 21.5485 
-211.894 93.1466 407.492 0.836518 1.48267 54.2941 0 8 -5.68434e-14 -2.15872 10.0211 2.0969 0 8 0 -1.22963 3.12235 18.5598 0 8 -1.42109e-14 -0.483062 1.62162 9.33102 -5.68434e-14 8 2.84217e-14 -0.477068 1.60033 9.20509 -5.68434e-14 17 0 -2.65122 -0.554379 4.5017 5.68434e-14 10.8 0 -6.69246 -2.99407 10.3596 5 17 0 -13.2044 7.75077 -43.4342 6.45 0 2.84217e-14 1.91746 2.11754 -1.67599 6.45 7.10543e-15 -2.84217e-14 21.1869 -11.8343 35.242 -1.13687e-13 -32.4 -2 -33.0062 -39.781 -6.72863 0 -25.65 2 9.07247 -10.6725 3.76896 -0.5 -1.5 2.65 3.41033 -18.9579 -4.60689 5.68434e-14 -3.8 3.7 0.0579137 18.5987 0.0673689 -5.68434e-14 -3 2.7 -0.102394 20.0082 -0.188101 0 -1.9 1.6 -4.06267e-05 4.33781e-06 1.09511e-06 -5.68434e-14 -8.3 1.9 -4.68607 -17.3487 -0.532222 0 -4.5 0 -0.00826564 -0.0819102 -0.000302044 0 -3.4 2.84217e-14 7.41115e-06 0.0409614 -0.000252429 -0.25 -2.2 0.4 -4.06267e-05 4.33781e-06 1.09511e-06 0 -8.3 1 -15.5537 -2.45321 0.686899 5.68434e-14 -4.65 0 -15.6505 -0.0349652 0.0106933 5.68434e-14 -3.3 -2.84217e-14 -12.9535 -0.0254962 0.000882123 -0.5 -2.15 -0.8 -4.06267e-05 4.33781e-06 1.09511e-06 0 -7.75 -0.2 -40.2017 6.69403 5.1666 1.13687e-13 -3.8 -2.84217e-14 -10.8919 0.0733914 0.0184731 1.13687e-13 -3.4 0 -9.414 0.0532585 0.0249786 -0.75 -1.75 -1.85 -4.06267e-05 4.33781e-06 1.09511e-06 5.68434e-14 -7.15 -1 -60.6229 8.23808 9.48477 2.84217e-14 -3 -2.84217e-14 -0.000954495 -0.123222 -0.173227 2.84217e-14 -2.35 2.84217e-14 -0.000356084 -0.119344 -0.171075 -5 17 -5.68434e-14 -2.71987 1.99522 -47.4063 -6.45 1.42109e-14 -2.84217e-14 -2.22943 -0.219241 0.881501 -6.45 1.42109e-14 2.84217e-14 -26.7347 10.2985 -47.4533 5.68434e-14 -32.4 -2 70.0291 -59.1525 85.7254 -1.13687e-13 -25.65 2 35.3589 -10.3007 -20.2192 0.5 -1.5 2.65 7.78729 -14.2138 6.65665 5.68434e-14 -3.8 3.7 0.187375 13.9704 -0.0386645 0 -3 2.7 0.0130081 -0.720338 -0.0202206 0 -1.9 1.6 -1.82587e-06 5.12093e-05 -3.91022e-05 0 -8.3 1.9 0.711068 -6.47541 0.112757 -1.13687e-13 -4.5 1.06581e-14 66.5303 0.00116358 -0.00302787 2.84217e-14 -3.4 -3.55271e-15 48.1341 -0.00381776 -3.07086e-06 0.25 -2.2 0.4 -1.82587e-06 5.12093e-05 -3.91022e-05 0 -8.3 1 7.33997 -5.14915 0.152605 -1.13687e-13 -4.65 7.10543e-15 87.1808 -0.00196374 0.000582952 -2.84217e-14 -3.3 3.55271e-15 81.277 -0.0189123 0.0146647 0.5 -2.15 -0.8 -1.82587e-06 5.12093e-05 -3.91022e-05 -1.13687e-13 -7.75 -0.2 20.0221 -2.52116 -0.225166 5.68434e-14 -3.8 0 79.8184 0.00341029 0.00692135 -2.84217e-14 -3.4 -7.10543e-15 65.6201 0.0127414 0.00176843 0.75 -1.75 -1.85 -1.82587e-06 5.12093e-05 -3.91022e-05 0 -7.15 -1 27.3645 -1.6402 -0.571621 5.68434e-14 -3 -7.10543e-15 83.6473 0.011429 0.0161661 5.68434e-14 -2.35 2.84217e-14 73.0333 0.0526926 -0.0148397 8 1.42109e-14 0 2.98279 4.87634 89.5908 0 -45 -1 -2.84648 -0.173545 -57.7228 5.68434e-14 -41 -2 -6.49796 0.633258 -47.4667 5.68434e-14 -7.5 12.5 -2.47267e-06 0.00376732 -2.80881e-05 0 0 4 -0.393882 -3.3959 45.0706 -8 0 0 -6.75363 -8.85863 -6.3428 0 -45 -1 -0.00155155 7.12008 0.297673 5.68434e-14 -41 -2 4.10006 1.93664 20.8016 -5.68434e-14 -7.5 12.5 3.30396e-05 0.0348105 -0.000923339 -5.68434e-14 -2.77556e-17 4 -1.43032 -1.16819 21.5449 
